<svg width="1230" height="1182" viewBox="0 0 1230 1182" fill="none" xmlns="http://www.w3.org/2000/svg">
<path d="M30.9732 658.715C13.8672 637.037 17.5734 605.596 39.2513 588.49L745.774 30.9732C767.452 13.8672 798.893 17.5734 815.999 39.2513L854.012 87.4246C867.928 105.06 867.462 130.066 852.898 147.17C786.107 225.613 875.58 338.999 967.404 292.279C987.426 282.092 1011.85 287.453 1025.77 305.088L1063.78 353.261C1080.89 374.939 1077.18 406.38 1055.51 423.486L348.983 981.003C327.305 998.109 295.865 994.403 278.759 972.725L240.745 924.552C226.829 906.916 227.295 881.911 241.859 864.806C308.65 786.363 219.177 672.977 127.353 719.697C107.332 729.884 82.9026 724.523 68.9867 706.888L30.9732 658.715Z" fill="#4DC941"/>
<path d="M442.969 643.184C440.892 644.822 438.835 645.522 436.798 645.281C434.774 644.921 432.943 643.703 431.305 641.626L384.602 582.442C382.911 580.298 382.151 578.234 382.325 576.249C382.565 574.212 383.723 572.374 385.8 570.735C387.876 569.097 389.9 568.424 391.87 568.717C393.908 568.957 395.772 570.149 397.464 572.293L416.177 596.007L452.652 567.224L433.939 543.51C432.248 541.366 431.489 539.302 431.662 537.317C431.902 535.28 433.06 533.442 435.137 531.803C437.214 530.165 439.237 529.492 441.208 529.785C443.245 530.025 445.11 531.217 446.801 533.36L493.504 592.545C495.143 594.622 495.868 596.712 495.681 598.817C495.508 600.801 494.383 602.613 492.306 604.252C490.229 605.89 488.172 606.59 486.135 606.349C484.112 605.989 482.281 604.771 480.642 602.694L461.136 577.976L424.661 606.758L444.167 631.477C445.805 633.554 446.564 635.618 446.444 637.67C446.271 639.654 445.112 641.492 442.969 643.184ZM539.782 596.138C538.308 597.301 536.785 597.85 535.213 597.787C533.694 597.79 532.331 597.234 531.126 596.12C529.988 594.953 529.165 593.428 528.658 591.546L523.518 570.981L527.641 576.206L475.971 548.334C474.205 547.335 472.921 546.121 472.117 544.689C471.314 543.258 471.124 541.777 471.547 540.248C471.985 538.598 473.108 537.06 474.917 535.632C476.457 534.417 477.987 533.807 479.507 533.804C480.973 533.734 482.841 534.379 485.111 535.74L525.398 558.899L522.383 561.278L509.449 516.372C508.706 513.915 508.573 511.955 509.049 510.492C509.472 508.962 510.521 507.537 512.196 506.215C513.67 505.052 515.159 504.529 516.664 504.646C518.117 504.696 519.446 505.278 520.651 506.392C521.803 507.439 522.626 508.964 523.119 510.966L542.708 586.002C543.318 588.565 543.384 590.578 542.908 592.041C542.432 593.503 541.39 594.869 539.782 596.138ZM586.443 559.318C584.433 560.903 582.47 561.583 580.552 561.357C578.635 561.131 576.856 559.98 575.218 557.903L530.894 501.733C529.255 499.656 528.549 497.659 528.775 495.742C529.001 493.824 530.085 492.099 532.028 490.566C534.038 488.98 536.001 488.3 537.919 488.526C539.837 488.752 541.615 489.904 543.253 491.98L549.438 499.818L545.954 497.676C544.263 493.466 544.139 489.107 545.582 484.599C547.091 480.038 549.923 476.119 554.076 472.841C558.364 469.458 562.934 467.536 567.788 467.076C572.71 466.562 577.581 467.501 582.403 469.892C587.172 472.216 591.644 476.024 595.82 481.317C599.943 486.542 602.634 491.811 603.891 497.123C605.095 502.369 604.909 507.299 603.332 511.913C601.755 516.526 598.79 520.551 594.436 523.987C590.349 527.212 585.972 529.035 581.305 529.457C576.585 529.812 572.394 528.771 568.732 526.334L569.938 525.383L587.778 547.992C589.417 550.068 590.09 552.092 589.797 554.062C589.571 555.98 588.453 557.732 586.443 559.318ZM583.386 517.217C585.865 515.261 587.566 512.94 588.49 510.254C589.414 507.568 589.454 504.656 588.609 501.519C587.777 498.262 585.961 494.858 583.159 491.307C578.93 485.948 574.646 482.861 570.307 482.046C565.915 481.163 561.843 482.202 558.092 485.163C555.613 487.118 553.912 489.439 552.988 492.125C552.011 494.744 551.938 497.682 552.769 500.94C553.614 504.077 555.438 507.421 558.239 510.972C562.415 516.264 566.726 519.384 571.171 520.334C575.563 521.216 579.635 520.177 583.386 517.217ZM650.566 479.695C645.006 484.082 639.397 486.823 633.739 487.918C628.081 489.013 622.64 488.524 617.417 486.45C612.26 484.323 607.62 480.647 603.497 475.422C599.48 470.331 597.003 465.057 596.066 459.6C595.197 454.09 595.758 448.809 597.751 443.758C599.758 438.587 603.14 434.125 607.896 430.372C611.38 427.623 614.944 425.735 618.589 424.706C622.301 423.625 625.974 423.39 629.609 424C633.31 424.558 636.879 425.981 640.315 428.27C643.766 430.439 646.997 433.432 650.01 437.251C650.962 438.456 651.267 439.738 650.924 441.095C650.596 442.332 649.662 443.559 648.121 444.774L615.866 470.227L610.157 462.992L638.393 440.711L637.974 443.487C635.543 440.406 633.039 438.197 630.462 436.86C627.953 435.471 625.404 434.927 622.817 435.23C620.243 435.412 617.684 436.508 615.138 438.517C612.325 440.737 610.442 443.31 609.489 446.236C608.551 449.041 608.497 452.073 609.329 455.33C610.174 458.468 611.892 461.678 614.482 464.96L615.037 465.664C619.371 471.157 623.895 474.272 628.608 475.01C633.335 475.628 638.211 473.955 643.235 469.99C644.976 468.616 646.761 466.882 648.587 464.788C650.428 462.575 651.896 460.166 652.993 457.561C653.766 455.647 654.741 454.334 655.918 453.622C657.043 452.844 658.171 452.551 659.303 452.746C660.501 452.887 661.564 453.407 662.491 454.306C663.365 455.138 663.93 456.268 664.187 457.696C664.511 459.071 664.361 460.602 663.737 462.291C662.555 465.615 660.714 468.861 658.214 472.029C655.728 475.078 653.179 477.633 650.566 479.695ZM687.084 450.553C685.007 452.192 682.976 452.924 680.992 452.751C679.021 452.458 677.217 451.273 675.578 449.197L645.606 411.214C643.967 409.137 643.261 407.14 643.487 405.223C643.713 403.305 644.797 401.58 646.74 400.047C648.683 398.514 650.613 397.86 652.53 398.086C654.448 398.312 656.226 399.464 657.865 401.54L662.86 407.871L661.855 408.664C659.621 403.904 659.059 399.403 660.166 395.159C661.274 390.915 663.947 386.795 668.185 382.798C669.486 381.554 670.882 381.05 672.373 381.287C673.879 381.403 675.385 382.28 676.894 383.916C678.349 385.485 679.031 387.175 678.939 388.987C678.861 390.679 677.997 392.339 676.347 393.967L674.295 395.913C670.526 399.539 668.448 403.244 668.063 407.026C667.625 410.741 668.913 414.508 671.926 418.327L688.339 439.127C689.978 441.203 690.711 443.234 690.538 445.218C690.312 447.136 689.16 448.914 687.084 450.553Z" fill="#032500" fill-opacity="0.5"/>
<path d="M134.31 762.718C124.197 737.022 136.831 707.993 162.527 697.881L1000.01 368.31C1025.71 358.198 1054.74 370.831 1064.85 396.527L1087.32 453.63C1095.55 474.534 1087.87 498.338 1068.99 510.505C982.381 566.301 1035.27 700.704 1136.68 682.511C1158.79 678.544 1180.63 690.736 1188.85 711.64L1211.33 768.743C1221.44 794.439 1208.8 823.467 1183.11 833.579L345.622 1163.15C319.926 1173.26 290.898 1160.63 280.786 1134.93L258.314 1077.83C250.088 1056.93 257.76 1033.12 276.645 1020.96C363.254 965.16 310.363 830.757 208.956 848.95C186.845 852.916 165.007 840.725 156.781 819.821L134.31 762.718Z" fill="#63F655"/>
<path d="M533.217 866.902C530.756 867.871 528.584 867.946 526.703 867.127C524.87 866.198 523.469 864.502 522.501 862.041L494.893 791.886C493.893 789.345 493.762 787.149 494.502 785.299C495.32 783.418 496.961 781.993 499.422 781.025C501.884 780.056 504.015 779.997 505.817 780.846C507.698 781.665 509.139 783.345 510.139 785.886L521.201 813.996L564.437 796.981L553.375 768.871C552.375 766.33 552.245 764.135 552.984 762.285C553.803 760.404 555.443 758.979 557.905 758.01C560.366 757.042 562.498 756.982 564.3 757.832C566.181 758.651 567.621 760.331 568.621 762.872L596.229 833.027C597.198 835.488 597.288 837.7 596.501 839.66C595.762 841.51 594.161 842.919 591.7 843.888C589.238 844.857 587.067 844.932 585.186 844.113C583.353 843.184 581.952 841.488 580.983 839.027L569.453 809.726L526.216 826.74L537.747 856.041C538.715 858.503 538.846 860.698 538.138 862.628C537.398 864.477 535.758 865.902 533.217 866.902ZM639.495 849.839C637.748 850.527 636.131 850.613 634.644 850.097C633.189 849.661 632.045 848.736 631.213 847.321C630.461 845.875 630.114 844.177 630.172 842.228L631.194 821.056L633.631 827.249L592.22 785.635C590.818 784.169 589.939 782.635 589.584 781.033C589.228 779.43 589.474 777.958 590.322 776.616C591.217 775.163 592.737 774.015 594.881 773.171C596.707 772.452 598.348 772.311 599.803 772.747C601.228 773.104 602.83 774.261 604.609 776.22L636.485 810.032L632.912 811.439L633.506 764.711C633.504 762.144 633.943 760.229 634.822 758.966C635.669 757.624 637.085 756.563 639.07 755.781C640.817 755.094 642.394 755.023 643.802 755.57C645.178 756.037 646.282 756.978 647.113 758.393C647.914 759.729 648.261 761.426 648.155 763.486L645.225 840.981C645.068 843.611 644.55 845.557 643.671 846.82C642.793 848.083 641.401 849.089 639.495 849.839ZM694.805 828.073C692.423 829.011 690.347 829.094 688.576 828.323C686.806 827.553 685.436 825.937 684.468 823.475L658.266 756.893C657.297 754.432 657.198 752.316 657.969 750.545C658.739 748.775 660.276 747.436 662.579 746.53C664.961 745.593 667.037 745.509 668.807 746.28C670.578 747.05 671.948 748.666 672.916 751.128L676.572 760.419L673.856 757.361C673.453 752.842 674.594 748.634 677.278 744.735C680.041 740.804 683.885 737.871 688.808 735.933C693.89 733.933 698.821 733.414 703.601 734.376C708.461 735.306 712.853 737.613 716.778 741.295C720.672 744.898 723.853 749.836 726.322 756.109C728.759 762.303 729.812 768.124 729.481 773.574C729.118 778.944 727.515 783.609 724.672 787.571C721.829 791.532 717.827 794.529 712.666 796.56C707.822 798.466 703.105 798.947 698.515 798.002C693.894 796.978 690.182 794.77 687.381 791.379L688.81 790.817L699.356 817.616C700.325 820.078 700.384 822.21 699.534 824.011C698.764 825.782 697.187 827.136 694.805 828.073ZM704.044 786.885C706.982 785.729 709.282 783.999 710.943 781.694C712.604 779.39 713.483 776.614 713.58 773.366C713.726 770.007 712.97 766.224 711.314 762.015C708.814 755.663 705.605 751.469 701.687 749.435C697.737 747.321 693.539 747.139 689.092 748.889C686.154 750.045 683.854 751.776 682.194 754.08C680.501 756.305 679.583 759.096 679.437 762.455C679.34 765.703 680.119 769.431 681.775 773.64C684.244 779.913 687.469 784.146 691.45 786.339C695.399 788.453 699.598 788.635 704.044 786.885ZM779.201 770.376C772.611 772.97 766.449 773.973 760.716 773.387C754.983 772.8 749.915 770.759 745.514 767.264C741.192 763.738 737.812 758.878 735.375 752.684C733 746.65 732.152 740.885 732.833 735.39C733.593 729.864 735.656 724.971 739.024 720.711C742.439 716.341 746.966 713.047 752.604 710.828C756.733 709.203 760.691 708.425 764.478 708.494C768.344 708.531 771.929 709.367 775.231 711.002C778.613 712.606 781.619 714.999 784.247 718.183C786.924 721.257 789.153 725.056 790.934 729.582C791.496 731.012 791.418 732.327 790.698 733.527C790.026 734.616 788.777 735.521 786.951 736.239L748.717 751.285L745.342 742.71L778.812 729.538L777.609 732.075C776.172 728.422 774.413 725.584 772.332 723.56C770.332 721.504 768.049 720.248 765.484 719.79C762.968 719.221 760.201 719.53 757.184 720.718C753.848 722.03 751.302 723.949 749.545 726.475C747.836 728.89 746.909 731.776 746.763 735.135C746.666 738.383 747.383 741.952 748.914 745.843L749.242 746.677C751.804 753.188 755.235 757.478 759.533 759.546C763.88 761.504 769.031 761.311 774.987 758.967C777.051 758.155 779.26 757.01 781.614 755.534C784.015 753.947 786.118 752.065 787.921 749.888C789.213 748.279 790.526 747.304 791.859 746.963C793.161 746.542 794.325 746.589 795.352 747.101C796.459 747.583 797.326 748.388 797.953 749.517C798.55 750.566 798.764 751.811 798.598 753.252C798.511 754.662 797.924 756.085 796.839 757.521C794.747 760.361 792.047 762.937 788.738 765.248C785.477 767.448 782.298 769.158 779.201 770.376ZM822.582 753.03C820.12 753.999 817.964 754.113 816.114 753.374C814.313 752.524 812.927 750.869 811.959 748.407L794.241 703.384C793.272 700.922 793.173 698.806 793.944 697.036C794.714 695.265 796.251 693.927 798.554 693.021C800.856 692.114 802.893 692.047 804.664 692.817C806.434 693.588 807.804 695.204 808.772 697.665L811.725 705.169L810.534 705.638C809.771 700.436 810.533 695.964 812.82 692.221C815.107 688.478 818.856 685.306 824.068 682.705C825.673 681.89 827.155 681.811 828.515 682.468C829.922 683.015 831.111 684.289 832.082 686.291C833.022 688.214 833.187 690.029 832.575 691.737C832.011 693.335 830.704 694.674 828.654 695.756L826.127 697.025C821.471 699.408 818.412 702.354 816.951 705.864C815.458 709.294 815.602 713.272 817.383 717.799L827.086 742.454C828.054 744.916 828.169 747.071 827.43 748.921C826.659 750.692 825.043 752.061 822.582 753.03Z" fill="#032500" fill-opacity="0.5"/>
</svg>
